<?xml version="1.0"?>
<svg xmlns="http://www.w3.org/2000/svg" xmlns:xlink="http://www.w3.org/1999/xlink" version="1.1" id="Capa_1" x="0px" y="0px" viewBox="0 0 59.95 59.95" style="enable-background:new 0 0 59.95 59.95;" xml:space="preserve" width="512px" height="512px" class=""><g><g>
	<path d="M36.918,48.093c-0.101-0.245-0.296-0.44-0.541-0.541c-0.122-0.051-0.252-0.077-0.382-0.077H32.41l8.293-8.293   c0.391-0.391,0.391-1.023,0-1.414s-1.023-0.391-1.414,0l-9.999,9.999c-0.093,0.092-0.166,0.203-0.217,0.326   c-0.101,0.244-0.101,0.52,0,0.764c0.101,0.245,0.296,0.44,0.541,0.541c0.122,0.051,0.252,0.077,0.382,0.077h3.586l-5.293,5.293   c-0.391,0.391-0.391,1.023,0,1.414c0.195,0.195,0.451,0.293,0.707,0.293s0.512-0.098,0.707-0.293l6.999-6.999   c0.093-0.092,0.166-0.203,0.217-0.326C37.019,48.612,37.019,48.337,36.918,48.093z" data-original="#000000" class="active-path" data-old_color="#000000" fill="#FFFFFF"/>
	<path d="M51.288,33.768l-9.999,9.999c-0.093,0.092-0.166,0.203-0.217,0.326c-0.101,0.244-0.101,0.52,0,0.764   c0.101,0.245,0.296,0.44,0.541,0.541c0.122,0.051,0.252,0.077,0.382,0.077h3.586l-5.293,5.293c-0.391,0.391-0.391,1.023,0,1.414   c0.195,0.195,0.451,0.293,0.707,0.293s0.512-0.098,0.707-0.293l6.999-6.999c0.093-0.092,0.166-0.203,0.217-0.326   c0.101-0.244,0.101-0.519,0-0.764c-0.101-0.245-0.296-0.44-0.541-0.541c-0.122-0.05-0.252-0.077-0.382-0.077H44.41l8.293-8.293   c0.391-0.391,0.391-1.023,0-1.414S51.679,33.377,51.288,33.768z" data-original="#000000" class="active-path" data-old_color="#000000" fill="#FFFFFF"/>
	<path d="M52.928,16.334C52.697,10.195,47.644,5.268,41.45,5.268c-3.551,0-6.73,1.619-8.841,4.157   c-2.787-3.747-7.107-5.95-11.831-5.95c-8.157,0-14.793,6.636-14.793,14.793c0,3.861,1.483,7.443,4.103,10.17   c-3.404,0.417-6.536,2.35-8.418,5.447c-3.292,5.419-1.563,12.507,3.855,15.8c0.163,0.099,0.342,0.146,0.519,0.146   c0.338,0,0.667-0.171,0.855-0.48c0.287-0.472,0.137-1.087-0.335-1.374c-4.477-2.721-5.905-8.575-3.186-13.052   c2.198-3.616,6.453-5.312,10.497-4.259c0.448,1.432,1.297,2.756,2.539,3.779c0.186,0.153,0.411,0.229,0.635,0.229   c0.289,0,0.575-0.124,0.772-0.364c0.351-0.427,0.29-1.057-0.136-1.407c-1.016-0.837-1.679-1.941-1.985-3.127   c-0.001-0.017-0.009-0.031-0.012-0.048c-0.016-0.063-0.033-0.126-0.046-0.189c-0.094-0.437-0.14-0.876-0.138-1.311   c0-0.057,0.006-0.113,0.008-0.17c0.005-0.149,0.013-0.298,0.029-0.446c0.01-0.09,0.025-0.18,0.039-0.27   c0.018-0.115,0.037-0.229,0.062-0.342c0.021-0.097,0.045-0.194,0.071-0.29c0.029-0.107,0.061-0.213,0.095-0.318   c0.031-0.094,0.063-0.189,0.099-0.282c0.042-0.109,0.09-0.216,0.138-0.323c0.039-0.085,0.075-0.17,0.118-0.253   c0.062-0.12,0.131-0.237,0.202-0.353c0.04-0.066,0.076-0.134,0.119-0.2c0.118-0.18,0.245-0.356,0.384-0.525   c0.783-0.951,1.808-1.614,2.93-1.946c0.82-0.242,1.693-0.304,2.562-0.176c-0.28,1.173-0.306,2.424-0.012,3.676   c0.108,0.46,0.519,0.771,0.973,0.771c0.076,0,0.153-0.009,0.23-0.026c0.538-0.127,0.871-0.665,0.745-1.203   c-0.284-1.205-0.18-2.411,0.228-3.49l0.009-0.022c0.02-0.051,0.044-0.099,0.065-0.149c0.072-0.173,0.151-0.343,0.238-0.507   c0.029-0.055,0.06-0.11,0.091-0.164c0.084-0.148,0.174-0.292,0.27-0.432c0.032-0.046,0.062-0.093,0.095-0.138   c0.13-0.178,0.266-0.351,0.414-0.513l0,0c0.157-0.173,0.325-0.335,0.501-0.488c0.018-0.016,0.038-0.03,0.056-0.045   c0.151-0.129,0.309-0.249,0.473-0.362c0.043-0.03,0.087-0.058,0.131-0.086c0.144-0.094,0.293-0.182,0.446-0.264   c0.054-0.029,0.107-0.058,0.162-0.085c0.152-0.076,0.309-0.143,0.467-0.205c0.055-0.022,0.109-0.046,0.166-0.067   c0.209-0.075,0.423-0.141,0.642-0.193c0.004-0.001,0.008-0.003,0.013-0.004c0.001,0,0.001,0,0.002,0   c0.328-0.077,0.663-0.123,1.001-0.143c0.015-0.001,0.03-0.003,0.045-0.004c0.344-0.017,0.693-0.006,1.044,0.037l0.303,0.036   c2.297,0.4,4.253,2.129,4.82,4.54c0.127,0.537,0.665,0.867,1.203,0.744c0.538-0.127,0.871-0.665,0.745-1.203   c-0.716-3.043-3.095-5.261-5.948-5.941c0.011-0.283,0.024-0.566,0.06-0.846c0.012-0.093,0.028-0.184,0.042-0.276   c0.058-0.359,0.132-0.715,0.23-1.065c0.01-0.037,0.018-0.074,0.028-0.11c0.121-0.411,0.269-0.814,0.446-1.206   c0.007-0.015,0.015-0.03,0.021-0.045c0.174-0.381,0.374-0.751,0.598-1.109c0.034-0.055,0.065-0.111,0.1-0.165l0.091-0.144   c1.711-2.512,4.593-4.166,7.856-4.166c5.094,0,9.253,4.033,9.478,9.073c-3.929,0.504-6.978,3.863-6.978,7.927c0,0.553,0.448,1,1,1   s1-0.447,1-1c0-3.309,2.691-6,6-6s6,2.691,6,6c0,0.553,0.447,1,1,1s1-0.447,1-1C59.95,20.188,56.878,16.818,52.928,16.334z    M20.777,5.475c4.314,0,8.245,2.121,10.63,5.704c-0.414,0.741-0.746,1.532-0.989,2.362c-0.024,0.081-0.041,0.163-0.063,0.244   c-0.083,0.308-0.156,0.62-0.214,0.938c-0.025,0.138-0.044,0.277-0.064,0.416c-0.037,0.262-0.067,0.526-0.087,0.793   c-0.006,0.083-0.023,0.164-0.027,0.247c-0.549,0.011-1.105,0.077-1.661,0.207c-0.279,0.066-0.55,0.146-0.814,0.239   c-0.045,0.016-0.087,0.037-0.132,0.053c-0.221,0.082-0.438,0.169-0.647,0.268c-0.047,0.022-0.091,0.049-0.137,0.072   c-0.203,0.101-0.403,0.208-0.595,0.325c-0.051,0.031-0.099,0.066-0.15,0.099c-0.18,0.116-0.357,0.236-0.526,0.365   c-0.059,0.045-0.115,0.094-0.173,0.14c-0.153,0.123-0.302,0.25-0.445,0.383c-0.065,0.061-0.127,0.124-0.19,0.187   c-0.127,0.127-0.251,0.257-0.369,0.393c-0.066,0.076-0.13,0.153-0.194,0.232c-0.106,0.131-0.208,0.265-0.305,0.402   c-0.063,0.088-0.124,0.176-0.183,0.267c-0.091,0.139-0.175,0.282-0.257,0.427c-0.035,0.062-0.077,0.12-0.11,0.183   c-0.059-0.012-0.118-0.013-0.178-0.024c-0.167-0.03-0.333-0.047-0.5-0.066c-0.211-0.024-0.421-0.045-0.632-0.053   c-0.174-0.006-0.347-0.003-0.52,0.002c-0.203,0.006-0.404,0.018-0.605,0.04c-0.175,0.019-0.347,0.043-0.52,0.073   c-0.197,0.034-0.391,0.078-0.585,0.127c-0.169,0.043-0.336,0.087-0.502,0.141c-0.194,0.063-0.382,0.138-0.57,0.216   c-0.157,0.065-0.314,0.127-0.467,0.202c-0.192,0.094-0.376,0.204-0.561,0.314c-0.138,0.082-0.279,0.158-0.413,0.249   c-0.201,0.136-0.389,0.291-0.578,0.447c-0.105,0.087-0.217,0.163-0.318,0.256c-0.284,0.258-0.554,0.537-0.804,0.84   c-0.167,0.202-0.32,0.412-0.465,0.626c-0.041,0.061-0.076,0.123-0.115,0.185c-0.1,0.157-0.196,0.315-0.284,0.478   c-0.038,0.07-0.071,0.141-0.106,0.212c-0.08,0.159-0.157,0.32-0.226,0.483c-0.03,0.07-0.056,0.141-0.084,0.212   c-0.065,0.168-0.125,0.338-0.179,0.51c-0.021,0.068-0.041,0.137-0.06,0.205c-0.049,0.176-0.093,0.353-0.13,0.531   c-0.014,0.068-0.028,0.136-0.041,0.205c-0.032,0.176-0.056,0.353-0.076,0.531c-0.008,0.075-0.018,0.15-0.024,0.225   c-0.013,0.163-0.02,0.327-0.023,0.492c-0.002,0.092-0.006,0.185-0.005,0.277c0,0.035-0.003,0.069-0.002,0.104   c-0.177-0.031-0.355-0.06-0.535-0.083c-3.173-2.444-4.987-6.114-4.987-10.109C7.984,11.214,13.723,5.475,20.777,5.475z" data-original="#000000" class="active-path" data-old_color="#000000" fill="#FFFFFF"/>
</g></g> </svg>
